<svg width="22" height="26" viewBox="0 0 22 26" fill="none" xmlns="http://www.w3.org/2000/svg">
<path d="M7.26786 14.1429H5.30357C4.97946 14.1429 4.71429 13.8777 4.71429 13.5536V11.5893C4.71429 11.2652 4.97946 11 5.30357 11H7.26786C7.59196 11 7.85714 11.2652 7.85714 11.5893V13.5536C7.85714 13.8777 7.59196 14.1429 7.26786 14.1429ZM12.5714 13.5536V11.5893C12.5714 11.2652 12.3062 11 11.9821 11H10.0179C9.69375 11 9.42857 11.2652 9.42857 11.5893V13.5536C9.42857 13.8777 9.69375 14.1429 10.0179 14.1429H11.9821C12.3062 14.1429 12.5714 13.8777 12.5714 13.5536ZM17.2857 13.5536V11.5893C17.2857 11.2652 17.0205 11 16.6964 11H14.7321C14.408 11 14.1429 11.2652 14.1429 11.5893V13.5536C14.1429 13.8777 14.408 14.1429 14.7321 14.1429H16.6964C17.0205 14.1429 17.2857 13.8777 17.2857 13.5536ZM12.5714 18.2679V16.3036C12.5714 15.9795 12.3062 15.7143 11.9821 15.7143H10.0179C9.69375 15.7143 9.42857 15.9795 9.42857 16.3036V18.2679C9.42857 18.592 9.69375 18.8571 10.0179 18.8571H11.9821C12.3062 18.8571 12.5714 18.592 12.5714 18.2679ZM7.85714 18.2679V16.3036C7.85714 15.9795 7.59196 15.7143 7.26786 15.7143H5.30357C4.97946 15.7143 4.71429 15.9795 4.71429 16.3036V18.2679C4.71429 18.592 4.97946 18.8571 5.30357 18.8571H7.26786C7.59196 18.8571 7.85714 18.592 7.85714 18.2679ZM17.2857 18.2679V16.3036C17.2857 15.9795 17.0205 15.7143 16.6964 15.7143H14.7321C14.408 15.7143 14.1429 15.9795 14.1429 16.3036V18.2679C14.1429 18.592 14.408 18.8571 14.7321 18.8571H16.6964C17.0205 18.8571 17.2857 18.592 17.2857 18.2679ZM22 5.5V22.7857C22 24.0871 20.9442 25.1429 19.6429 25.1429H2.35714C1.0558 25.1429 0 24.0871 0 22.7857V5.5C0 4.19866 1.0558 3.14286 2.35714 3.14286H4.71429V0.589286C4.71429 0.265179 4.97946 0 5.30357 0H7.26786C7.59196 0 7.85714 0.265179 7.85714 0.589286V3.14286H14.1429V0.589286C14.1429 0.265179 14.408 0 14.7321 0H16.6964C17.0205 0 17.2857 0.265179 17.2857 0.589286V3.14286H19.6429C20.9442 3.14286 22 4.19866 22 5.5ZM19.6429 22.4911V7.85714H2.35714V22.4911C2.35714 22.6531 2.48973 22.7857 2.65179 22.7857H19.3482C19.5103 22.7857 19.6429 22.6531 19.6429 22.4911Z" fill="white"/>
</svg>
