<svg width="22" height="22" viewBox="0 0 22 22" fill="none" xmlns="http://www.w3.org/2000/svg">
<path d="M16.1163 22H5.88372C1.37116 22 0 20.6288 0 16.1163V5.88372C0 1.37116 1.37116 0 5.88372 0H7.4186C9.2093 0 9.77209 0.583256 10.4884 1.53488L12.0233 3.5814C12.3609 4.03163 12.4121 4.09302 13.0465 4.09302H16.1163C20.6288 4.09302 22 5.46419 22 9.97674V16.1163C22 20.6288 20.6288 22 16.1163 22ZM5.88372 1.53488C2.2307 1.53488 1.53488 2.2307 1.53488 5.88372V16.1163C1.53488 19.7693 2.2307 20.4651 5.88372 20.4651H16.1163C19.7693 20.4651 20.4651 19.7693 20.4651 16.1163V9.97674C20.4651 6.32372 19.7693 5.62791 16.1163 5.62791H13.0465C11.7367 5.62791 11.307 5.17767 10.7953 4.50233L9.26047 2.45581C8.72837 1.74977 8.57488 1.53488 7.4186 1.53488H5.88372Z" fill="white"/>
</svg>
