<svg width="308" height="38" viewBox="0 0 308 38" fill="none" xmlns="http://www.w3.org/2000/svg">
<path d="M0.48 30L7.72 3.6H16.08L17.92 18.68L25.36 3.6H32.36L33.08 23.36C33.1867 25.9733 33.88 27.68 35.16 28.48C34.8667 29.0133 34.2933 29.5333 33.44 30.04C32.5867 30.5467 31.5867 30.8 30.44 30.8C29.32 30.8 28.4267 30.64 27.76 30.32C27.0933 30 26.5733 29.5733 26.2 29.04C25.5333 28.08 25.2 26.68 25.2 24.84V12.48L17.32 30H12.36L9.56 12.04L5.08 30H0.48ZM53.0753 23.24C53.742 23.6933 54.0753 24.4267 54.0753 25.44C54.0753 26.4267 53.822 27.24 53.3153 27.88C52.8086 28.52 52.142 29.0533 51.3153 29.48C49.6086 30.36 47.8353 30.8 45.9953 30.8C44.1553 30.8 42.6886 30.6 41.5953 30.2C40.5286 29.8 39.6353 29.2267 38.9153 28.48C37.502 27.0667 36.7953 25.0667 36.7953 22.48C36.7953 18.4533 37.8886 15.2133 40.0753 12.76C42.422 10.12 45.6353 8.8 49.7153 8.8C52.2486 8.8 54.142 9.33333 55.3953 10.4C56.3286 11.2 56.7953 12.2533 56.7953 13.56C56.7953 18.2533 52.742 20.6 44.6353 20.6C44.5286 21.2933 44.4753 21.9333 44.4753 22.52C44.4753 23.7467 44.742 24.6 45.2753 25.08C45.8353 25.5333 46.622 25.76 47.6353 25.76C48.6486 25.76 49.6886 25.5333 50.7553 25.08C51.8486 24.6 52.622 23.9867 53.0753 23.24ZM44.9153 18.88C46.8086 18.88 48.302 18.2933 49.3953 17.12C50.4886 16 51.0353 14.5467 51.0353 12.76C51.0353 12.1467 50.9153 11.68 50.6753 11.36C50.462 11.0133 50.1286 10.84 49.6753 10.84C49.222 10.84 48.7953 10.9333 48.3953 11.12C48.022 11.28 47.6353 11.6533 47.2353 12.24C46.2486 13.5733 45.4753 15.7867 44.9153 18.88ZM86.9644 30.8C83.7377 30.8 82.1244 29.5467 82.1244 27.04C82.1244 25.9467 82.351 24.3467 82.8044 22.24C83.2844 20.1067 83.6044 18.6133 83.7644 17.76C84.1377 15.8133 84.3244 14.5333 84.3244 13.92C84.3244 12.56 83.8177 11.88 82.8044 11.88C82.1377 11.88 81.4844 12.3467 80.8444 13.28C80.2044 14.1867 79.7377 15.56 79.4444 17.4L76.9644 30L69.1644 30.8L71.3244 19.92C71.5644 18.72 71.791 17.44 72.0044 16.08C72.2177 14.72 72.3244 13.9333 72.3244 13.72C72.3244 12.4933 71.871 11.88 70.9644 11.88C70.351 11.88 69.711 12.3333 69.0444 13.24C68.3777 14.1467 67.8577 15.5333 67.4844 17.4L65.0444 30L57.1644 30.8L61.3644 9.6L67.8844 8.8L67.2044 12.84C67.8977 11.4 68.8844 10.3733 70.1644 9.76C71.4444 9.12 73.0844 8.8 75.0844 8.8C76.231 8.8 77.1777 9.08 77.9244 9.64C78.671 10.2 79.1644 10.9333 79.4044 11.84C79.8577 10.9067 80.6577 10.1733 81.8044 9.64C82.9777 9.08 84.271 8.8 85.6844 8.8C87.1244 8.8 88.191 8.96 88.8844 9.28C89.6044 9.57333 90.1777 9.97333 90.6044 10.48C91.3244 11.4133 91.6844 12.7333 91.6844 14.44C91.6844 16.12 91.3244 18.7067 90.6044 22.2C90.231 23.9067 90.0444 25.08 90.0444 25.72C90.0444 26.3333 90.2177 26.8267 90.5644 27.2C90.9377 27.5733 91.391 27.7867 91.9244 27.84C91.6577 28.7467 91.0577 29.4667 90.1244 30C89.2177 30.5333 88.1644 30.8 86.9644 30.8ZM103.72 30.8C97.8536 30.8 94.9203 28.04 94.9203 22.52C94.9203 18.6 96.0003 15.3733 98.1603 12.84C100.454 10.1467 103.587 8.8 107.56 8.8C110.44 8.8 112.614 9.46667 114.08 10.8C115.547 12.1333 116.28 14.2 116.28 17C116.28 21.2667 115.134 24.64 112.84 27.12C110.6 29.5733 107.56 30.8 103.72 30.8ZM104.76 13.4C104.44 14.12 104.147 15.0267 103.88 16.12C103.64 17.1867 103.36 18.5733 103.04 20.28C102.72 21.9867 102.56 23.8933 102.56 26C102.56 26.6933 102.667 27.2667 102.88 27.72C103.12 28.1733 103.547 28.4 104.16 28.4C104.774 28.4 105.267 28.2533 105.64 27.96C106.04 27.6667 106.387 27.1733 106.68 26.48C107.214 25.2533 107.694 23.5067 108.12 21.24C108.547 18.9467 108.774 17.3067 108.8 16.32C108.854 15.3333 108.88 14.48 108.88 13.76C108.88 13.0133 108.774 12.4 108.56 11.92C108.347 11.44 107.934 11.2 107.32 11.2C106.734 11.2 106.24 11.3867 105.84 11.76C105.44 12.1333 105.08 12.68 104.76 13.4ZM128.233 27.8C127.406 29.8 125.673 30.8 123.033 30.8C121.673 30.8 120.566 30.3333 119.713 29.4C118.993 28.5733 118.633 27.7467 118.633 26.92C118.633 24.76 119.126 21.5733 120.113 17.36L121.593 9.6L129.713 8.8L127.273 21.44C126.82 23.4133 126.593 24.7467 126.593 25.44C126.593 26.96 127.14 27.7467 128.233 27.8ZM122.313 4.04C122.313 3 122.74 2.2 123.593 1.64C124.473 1.08 125.54 0.799999 126.793 0.799999C128.046 0.799999 129.046 1.08 129.793 1.64C130.566 2.2 130.953 3 130.953 4.04C130.953 5.08 130.526 5.86667 129.673 6.4C128.846 6.93333 127.806 7.2 126.553 7.2C125.3 7.2 124.273 6.93333 123.473 6.4C122.7 5.86667 122.313 5.08 122.313 4.04ZM144.161 18.76C145.121 17.0533 145.601 15.3333 145.601 13.6C145.601 12.4533 145.188 11.88 144.361 11.88C143.721 11.88 143.068 12.4267 142.401 13.52C141.708 14.6133 141.254 15.8667 141.041 17.28L138.961 30L130.681 30.8L134.761 9.6L141.361 8.8L140.641 12.84C141.948 10.1467 144.068 8.8 147.001 8.8C148.548 8.8 149.734 9.2 150.561 10C151.414 10.8 151.841 12.0267 151.841 13.68C151.841 15.3067 151.294 16.64 150.201 17.68C149.134 18.72 147.681 19.24 145.841 19.24C145.041 19.24 144.481 19.08 144.161 18.76ZM155.702 35.52C157.062 35.36 158.169 34.4 159.022 32.64C159.902 30.8533 160.743 27.9067 161.543 23.8L165.423 3.6H174.103L170.223 23.8C169.236 29.0267 167.929 32.6667 166.303 34.72C165.449 35.7867 164.476 36.5333 163.383 36.96C162.316 37.3867 161.196 37.6 160.022 37.6C158.849 37.6 157.889 37.3867 157.142 36.96C156.369 36.5333 155.889 36.0533 155.702 35.52ZM183.72 30.8C177.854 30.8 174.92 28.04 174.92 22.52C174.92 18.6 176 15.3733 178.16 12.84C180.454 10.1467 183.587 8.8 187.56 8.8C190.44 8.8 192.614 9.46667 194.08 10.8C195.547 12.1333 196.28 14.2 196.28 17C196.28 21.2667 195.134 24.64 192.84 27.12C190.6 29.5733 187.56 30.8 183.72 30.8ZM184.76 13.4C184.44 14.12 184.147 15.0267 183.88 16.12C183.64 17.1867 183.36 18.5733 183.04 20.28C182.72 21.9867 182.56 23.8933 182.56 26C182.56 26.6933 182.667 27.2667 182.88 27.72C183.12 28.1733 183.547 28.4 184.16 28.4C184.774 28.4 185.267 28.2533 185.64 27.96C186.04 27.6667 186.387 27.1733 186.68 26.48C187.214 25.2533 187.694 23.5067 188.12 21.24C188.547 18.9467 188.774 17.3067 188.8 16.32C188.854 15.3333 188.88 14.48 188.88 13.76C188.88 13.0133 188.774 12.4 188.56 11.92C188.347 11.44 187.934 11.2 187.32 11.2C186.734 11.2 186.24 11.3867 185.84 11.76C185.44 12.1333 185.08 12.68 184.76 13.4ZM211.473 28.32C210.193 29.9733 207.966 30.8 204.793 30.8C203.14 30.8 201.713 30.3067 200.513 29.32C199.313 28.3067 198.713 27.08 198.713 25.64C198.713 24.84 198.753 24.24 198.833 23.84L201.513 9.6L209.633 8.8L206.713 24.24C206.606 24.8267 206.553 25.2933 206.553 25.64C206.553 27.1867 207.02 27.96 207.953 27.96C208.993 27.96 209.886 27.2533 210.633 25.84C210.873 25.3867 211.046 24.8667 211.153 24.28L213.993 9.6L221.873 8.8L218.913 24.4C218.833 24.8 218.793 25.2133 218.793 25.64C218.793 26.0667 218.913 26.52 219.153 27C219.393 27.4533 219.9 27.7333 220.673 27.84C220.513 28.48 220.153 29.0133 219.593 29.44C218.42 30.3467 217.193 30.8 215.913 30.8C214.66 30.8 213.66 30.5733 212.913 30.12C212.166 29.6667 211.686 29.0667 211.473 28.32ZM236.544 18.76C237.504 17.0533 237.984 15.3333 237.984 13.6C237.984 12.4533 237.57 11.88 236.744 11.88C236.104 11.88 235.45 12.4267 234.784 13.52C234.09 14.6133 233.637 15.8667 233.424 17.28L231.344 30L223.064 30.8L227.144 9.6L233.744 8.8L233.024 12.84C234.33 10.1467 236.45 8.8 239.384 8.8C240.93 8.8 242.117 9.2 242.944 10C243.797 10.8 244.224 12.0267 244.224 13.68C244.224 15.3067 243.677 16.64 242.584 17.68C241.517 18.72 240.064 19.24 238.224 19.24C237.424 19.24 236.864 19.08 236.544 18.76ZM261.803 30.8C258.576 30.8 256.963 29.5467 256.963 27.04C256.99 26.3467 257.11 25.4133 257.323 24.24L258.043 20.56C258.763 17.0933 259.123 14.9733 259.123 14.2C259.123 12.6533 258.67 11.88 257.763 11.88C256.243 11.88 255.083 13.8667 254.283 17.84L251.923 30L243.883 30.8L248.043 9.56L254.603 8.8L253.963 12.72C255.216 10.1067 257.763 8.8 261.603 8.8C263.47 8.8 264.79 9.2 265.563 10C266.363 10.7733 266.763 12.04 266.763 13.8C266.763 15.4533 266.336 18.2133 265.483 22.08C265.083 23.8133 264.883 25.0133 264.883 25.68C264.883 26.32 265.056 26.8267 265.403 27.2C265.776 27.5733 266.23 27.7867 266.763 27.84C266.496 28.7467 265.896 29.4667 264.963 30C264.056 30.5333 263.003 30.8 261.803 30.8ZM271.681 28.8C271.068 28.1067 270.615 27.2133 270.321 26.12C270.055 25.0267 269.921 23.5867 269.921 21.8C269.921 20.0133 270.228 18.3067 270.841 16.68C271.455 15.0533 272.321 13.6533 273.441 12.48C275.735 10.0267 278.775 8.8 282.561 8.8C283.921 8.8 285.095 9.02667 286.081 9.48L292.921 8.8L289.961 24.4C289.881 24.72 289.841 25.1733 289.841 25.76C289.841 26.3467 290.015 26.8267 290.361 27.2C290.735 27.5733 291.188 27.7867 291.721 27.84C291.455 28.7467 290.828 29.4667 289.841 30C288.881 30.5333 287.855 30.8 286.761 30.8C285.668 30.8 284.748 30.5867 284.001 30.16C283.281 29.76 282.815 29.2133 282.601 28.52C282.175 29.1867 281.508 29.7333 280.601 30.16C279.695 30.5867 278.628 30.8 277.401 30.8C276.201 30.8 275.108 30.64 274.121 30.32C273.135 30 272.321 29.4933 271.681 28.8ZM280.121 12.56C279.828 13.04 279.548 13.6933 279.281 14.52C279.015 15.32 278.655 16.8133 278.201 19C277.775 21.16 277.561 23.0133 277.561 24.56C277.561 26.1067 277.681 27.1067 277.921 27.56C278.161 28.0133 278.495 28.24 278.921 28.24C279.775 28.24 280.508 27.84 281.121 27.04C281.761 26.2133 282.201 25.08 282.441 23.64L284.561 11.92C284.001 11.44 283.388 11.2 282.721 11.2C282.081 11.2 281.561 11.3067 281.161 11.52C280.788 11.7333 280.441 12.08 280.121 12.56ZM304.638 27.8C303.812 29.8 302.078 30.8 299.438 30.8C298.105 30.8 297.012 30.3333 296.158 29.4C295.465 28.6267 295.118 27.8 295.118 26.92C295.118 24.92 295.585 21.7333 296.518 17.36L299.438 2L307.558 1.2L303.678 21.44C303.225 23.4133 302.998 24.7467 302.998 25.44C302.998 26.96 303.545 27.7467 304.638 27.8Z" fill="white"/>
</svg>
